STARTFONT 2.1
FONT -DEC-Terminal-Medium-R-Wide--14-100-100-100-C-120-DEC-DECtech
SIZE 10 100 100
FONTBOUNDINGBOX 12 13 0 -2

STARTPROPERTIES 25
CHARSET_REGISTRY "DEC"
CHARSET_ENCODING "DECtech"
CAP_HEIGHT 9
X_HEIGHT 7
AVERAGE_WIDTH 120
FONTNAME_REGISTRY ""
FAMILY_NAME "Terminal"
FOUNDRY "DEC"
WEIGHT_NAME "Medium"
SETWIDTH_NAME "Wide"
SLANT "R"
ADD_STYLE_NAME ""
PIXEL_SIZE 14
POINT_SIZE 100
RESOLUTION_X 100
RESOLUTION_Y 100
SPACING "C"
CHARSET_COLLECTIONS "DEC-DECtech"
FULL_NAME "Terminal Wide"
COPYRIGHT "Copyright (c) 1990 Digital Equipment Corp. All rights reserved."
WEIGHT 10
QUAD_WIDTH 12
DEFAULT_CHAR 159
FONT_DESCENT 2
FONT_ASCENT 11
ENDPROPERTIES

CHARS 181

STARTCHAR space
ENCODING 32
SWIDTH 860 0
DWIDTH 12 0
BBX 1 1 0 0
BITMAP
00
ENDCHAR

STARTCHAR exclam
ENCODING 33
SWIDTH 860 0
DWIDTH 12 0
BBX 2 9 5 0
BITMAP
C0
C0
C0
C0
C0
C0
00
C0
C0
ENDCHAR

STARTCHAR quotedbl
ENCODING 34
SWIDTH 860 0
DWIDTH 12 0
BBX 6 4 3 6
BITMAP
CC
CC
CC
CC
ENDCHAR

STARTCHAR numbersign
ENCODING 35
SWIDTH 860 0
DWIDTH 12 0
BBX 10 9 1 0
BITMAP
3300
3300
FFC0
3300
3300
FFC0
3300
3300
3300
ENDCHAR

STARTCHAR dollar
ENCODING 36
SWIDTH 860 0
DWIDTH 12 0
BBX 10 11 1 -1
BITMAP
0C00
0C00
7F80
CCC0
CC00
7F80
0CC0
CCC0
7F80
0C00
0C00
ENDCHAR

STARTCHAR percent
ENCODING 37
SWIDTH 860 0
DWIDTH 12 0
BBX 10 9 1 0
BITMAP
70C0
8980
7300
0600
0C00
1800
3380
6440
C380
ENDCHAR

STARTCHAR ampersand
ENCODING 38
SWIDTH 860 0
DWIDTH 12 0
BBX 10 9 1 0
BITMAP
3C00
6600
6600
3C00
3C40
6C40
C680
E380
7EC0
ENDCHAR

STARTCHAR quoteright
ENCODING 39
SWIDTH 860 0
DWIDTH 12 0
BBX 2 4 5 5
BITMAP
C0
C0
40
80
ENDCHAR

STARTCHAR parenleft
ENCODING 40
SWIDTH 860 0
DWIDTH 12 0
BBX 6 11 4 -1
BITMAP
1C
30
60
C0
C0
C0
C0
C0
60
30
1C
ENDCHAR

STARTCHAR parenright
ENCODING 41
SWIDTH 860 0
DWIDTH 12 0
BBX 6 11 3 -1
BITMAP
E0
30
18
0C
0C
0C
0C
0C
18
30
E0
ENDCHAR

STARTCHAR asterisk
ENCODING 42
SWIDTH 860 0
DWIDTH 12 0
BBX 10 6 1 2
BITMAP
0C00
CCC0
3F00
3F00
CCC0
0C00
ENDCHAR

STARTCHAR plus
ENCODING 43
SWIDTH 860 0
DWIDTH 12 0
BBX 10 5 1 2
BITMAP
0C00
0C00
FFC0
0C00
0C00
ENDCHAR

STARTCHAR comma
ENCODING 44
SWIDTH 860 0
DWIDTH 12 0
BBX 3 3 3 -1
BITMAP
60
60
C0
ENDCHAR

STARTCHAR minus
ENCODING 45
SWIDTH 860 0
DWIDTH 12 0
BBX 9 1 2 4
BITMAP
FF80
ENDCHAR

STARTCHAR period
ENCODING 46
SWIDTH 860 0
DWIDTH 12 0
BBX 2 2 5 0
BITMAP
C0
C0
ENDCHAR

STARTCHAR slash
ENCODING 47
SWIDTH 860 0
DWIDTH 12 0
BBX 9 11 2 -1
BITMAP
0180
0300
0300
0600
0C00
1800
1800
3000
6000
6000
C000
ENDCHAR

STARTCHAR zero
ENCODING 48
SWIDTH 860 0
DWIDTH 12 0
BBX 8 9 2 0
BITMAP
3C
42
C3
C3
C3
C3
C3
42
3C
ENDCHAR

STARTCHAR one
ENCODING 49
SWIDTH 860 0
DWIDTH 12 0
BBX 8 9 2 0
BITMAP
18
38
58
18
18
18
18
18
FF
ENDCHAR

STARTCHAR two
ENCODING 50
SWIDTH 860 0
DWIDTH 12 0
BBX 8 9 2 0
BITMAP
7E
C3
03
03
06
1C
30
60
FF
ENDCHAR

STARTCHAR three
ENCODING 51
SWIDTH 860 0
DWIDTH 12 0
BBX 8 9 2 0
BITMAP
7E
C3
03
03
1E
03
03
C3
7E
ENDCHAR

STARTCHAR four
ENCODING 52
SWIDTH 860 0
DWIDTH 12 0
BBX 9 9 2 0
BITMAP
0600
0E00
1600
2600
6600
FF80
0600
0600
0600
ENDCHAR

STARTCHAR five
ENCODING 53
SWIDTH 860 0
DWIDTH 12 0
BBX 8 9 2 0
BITMAP
FF
C0
C0
FE
C3
03
03
C3
7E
ENDCHAR

STARTCHAR six
ENCODING 54
SWIDTH 860 0
DWIDTH 12 0
BBX 8 9 2 0
BITMAP
1E
60
C0
C0
FE
C3
C3
C3
7E
ENDCHAR

STARTCHAR seven
ENCODING 55
SWIDTH 860 0
DWIDTH 12 0
BBX 8 9 2 0
BITMAP
FF
03
06
0C
18
18
30
30
30
ENDCHAR

STARTCHAR eight
ENCODING 56
SWIDTH 860 0
DWIDTH 12 0
BBX 8 9 2 0
BITMAP
7E
C3
C3
C3
7E
C3
C3
C3
7E
ENDCHAR

STARTCHAR nine
ENCODING 57
SWIDTH 860 0
DWIDTH 12 0
BBX 8 9 2 0
BITMAP
7E
C3
C3
C3
7F
03
03
06
7C
ENDCHAR

STARTCHAR colon
ENCODING 58
SWIDTH 860 0
DWIDTH 12 0
BBX 2 7 5 0
BITMAP
C0
C0
00
00
00
C0
C0
ENDCHAR

STARTCHAR semicolon
ENCODING 59
SWIDTH 860 0
DWIDTH 12 0
BBX 3 8 4 -1
BITMAP
60
60
00
00
00
60
60
C0
ENDCHAR

STARTCHAR less
ENCODING 60
SWIDTH 860 0
DWIDTH 12 0
BBX 8 7 2 0
BITMAP
03
0C
30
C0
30
0C
03
ENDCHAR

STARTCHAR equal
ENCODING 61
SWIDTH 860 0
DWIDTH 12 0
BBX 10 3 1 2
BITMAP
FFC0
0000
FFC0
ENDCHAR

STARTCHAR greater
ENCODING 62
SWIDTH 860 0
DWIDTH 12 0
BBX 8 7 2 0
BITMAP
C0
30
0C
03
0C
30
C0
ENDCHAR

STARTCHAR question
ENCODING 63
SWIDTH 860 0
DWIDTH 12 0
BBX 10 9 1 0
BITMAP
7F80
C0C0
00C0
00C0
0780
0C00
0000
0C00
0C00
ENDCHAR

STARTCHAR at
ENCODING 64
SWIDTH 860 0
DWIDTH 12 0
BBX 10 9 1 0
BITMAP
7F80
C0C0
C7C0
CCC0
CCC0
CCC0
C7C0
C000
7FC0
ENDCHAR

STARTCHAR A
ENCODING 65
SWIDTH 860 0
DWIDTH 12 0
BBX 10 9 1 0
BITMAP
1E00
3300
6180
6180
FFC0
C0C0
C0C0
C0C0
C0C0
ENDCHAR

STARTCHAR B
ENCODING 66
SWIDTH 860 0
DWIDTH 12 0
BBX 10 9 1 0
BITMAP
FF80
C0C0
C0C0
C0C0
FF80
C0C0
C0C0
C0C0
FF80
ENDCHAR

STARTCHAR C
ENCODING 67
SWIDTH 860 0
DWIDTH 12 0
BBX 10 9 1 0
BITMAP
7F80
C0C0
C000
C000
C000
C000
C000
C0C0
7F80
ENDCHAR

STARTCHAR D
ENCODING 68
SWIDTH 860 0
DWIDTH 12 0
BBX 10 9 1 0
BITMAP
FF80
C0C0
C0C0
C0C0
C0C0
C0C0
C0C0
C0C0
FF80
ENDCHAR

STARTCHAR E
ENCODING 69
SWIDTH 860 0
DWIDTH 12 0
BBX 9 9 2 0
BITMAP
FF80
C000
C000
C000
FF00
C000
C000
C000
FF80
ENDCHAR

STARTCHAR F
ENCODING 70
SWIDTH 860 0
DWIDTH 12 0
BBX 9 9 2 0
BITMAP
FF80
C000
C000
C000
FF00
C000
C000
C000
C000
ENDCHAR

STARTCHAR G
ENCODING 71
SWIDTH 860 0
DWIDTH 12 0
BBX 10 9 1 0
BITMAP
7F80
C0C0
C000
C000
C000
C3C0
C0C0
C0C0
7F80
ENDCHAR

STARTCHAR H
ENCODING 72
SWIDTH 860 0
DWIDTH 12 0
BBX 10 9 1 0
BITMAP
C0C0
C0C0
C0C0
C0C0
FFC0
C0C0
C0C0
C0C0
C0C0
ENDCHAR

STARTCHAR I
ENCODING 73
SWIDTH 860 0
DWIDTH 12 0
BBX 10 9 1 0
BITMAP
FFC0
0C00
0C00
0C00
0C00
0C00
0C00
0C00
FFC0
ENDCHAR

STARTCHAR J
ENCODING 74
SWIDTH 860 0
DWIDTH 12 0
BBX 10 9 1 0
BITMAP
3FC0
0300
0300
0300
0300
0300
0300
C300
7E00
ENDCHAR

STARTCHAR K
ENCODING 75
SWIDTH 860 0
DWIDTH 12 0
BBX 10 9 1 0
BITMAP
C0C0
C300
CC00
F000
F800
CC00
C300
C180
C0C0
ENDCHAR

STARTCHAR L
ENCODING 76
SWIDTH 860 0
DWIDTH 12 0
BBX 9 9 2 0
BITMAP
C000
C000
C000
C000
C000
C000
C000
C000
FF80
ENDCHAR

STARTCHAR M
ENCODING 77
SWIDTH 860 0
DWIDTH 12 0
BBX 10 9 1 0
BITMAP
C0C0
E1C0
F3C0
DEC0
CCC0
CCC0
C0C0
C0C0
C0C0
ENDCHAR

STARTCHAR N
ENCODING 78
SWIDTH 860 0
DWIDTH 12 0
BBX 10 9 1 0
BITMAP
C0C0
E0C0
F0C0
D8C0
CCC0
C6C0
C3C0
C1C0
C0C0
ENDCHAR

STARTCHAR O
ENCODING 79
SWIDTH 860 0
DWIDTH 12 0
BBX 10 9 1 0
BITMAP
7F80
C0C0
C0C0
C0C0
C0C0
C0C0
C0C0
C0C0
7F80
ENDCHAR

STARTCHAR P
ENCODING 80
SWIDTH 860 0
DWIDTH 12 0
BBX 10 9 1 0
BITMAP
FF80
C0C0
C0C0
C0C0
FF80
C000
C000
C000
C000
ENDCHAR

STARTCHAR Q
ENCODING 81
SWIDTH 860 0
DWIDTH 12 0
BBX 10 10 1 -1
BITMAP
7F80
C0C0
C0C0
C0C0
C0C0
C0C0
C0C0
C3C0
7F80
00C0
ENDCHAR

STARTCHAR R
ENCODING 82
SWIDTH 860 0
DWIDTH 12 0
BBX 10 9 1 0
BITMAP
FF80
C0C0
C0C0
C0C0
FF80
C300
C180
C180
C0C0
ENDCHAR

STARTCHAR S
ENCODING 83
SWIDTH 860 0
DWIDTH 12 0
BBX 10 9 1 0
BITMAP
7F80
C0C0
C000
C000
7F80
00C0
00C0
C0C0
7F80
ENDCHAR

STARTCHAR T
ENCODING 84
SWIDTH 860 0
DWIDTH 12 0
BBX 10 9 1 0
BITMAP
FFC0
0C00
0C00
0C00
0C00
0C00
0C00
0C00
0C00
ENDCHAR

STARTCHAR U
ENCODING 85
SWIDTH 860 0
DWIDTH 12 0
BBX 10 9 1 0
BITMAP
C0C0
C0C0
C0C0
C0C0
C0C0
C0C0
C0C0
C0C0
7F80
ENDCHAR

STARTCHAR V
ENCODING 86
SWIDTH 860 0
DWIDTH 12 0
BBX 10 9 1 0
BITMAP
C0C0
C0C0
C0C0
C0C0
6180
6180
3300
1E00
0C00
ENDCHAR

STARTCHAR W
ENCODING 87
SWIDTH 860 0
DWIDTH 12 0
BBX 10 9 1 0
BITMAP
C0C0
C0C0
C0C0
CCC0
CCC0
DEC0
5280
7380
2100
ENDCHAR

STARTCHAR X
ENCODING 88
SWIDTH 860 0
DWIDTH 12 0
BBX 10 9 1 0
BITMAP
C0C0
6180
3300
1E00
1E00
3300
6180
6180
C0C0
ENDCHAR

STARTCHAR Y
ENCODING 89
SWIDTH 860 0
DWIDTH 12 0
BBX 10 9 1 0
BITMAP
C0C0
6180
3300
1E00
0C00
0C00
0C00
0C00
0C00
ENDCHAR

STARTCHAR Z
ENCODING 90
SWIDTH 860 0
DWIDTH 12 0
BBX 9 9 1 0
BITMAP
FF80
0300
0600
0C00
1C00
1800
3000
6000
FF80
ENDCHAR

STARTCHAR bracketleft
ENCODING 91
SWIDTH 860 0
DWIDTH 12 0
BBX 6 11 4 -1
BITMAP
FC
C0
C0
C0
C0
C0
C0
C0
C0
C0
FC
ENDCHAR

STARTCHAR backslash
ENCODING 92
SWIDTH 860 0
DWIDTH 12 0
BBX 9 11 2 -1
BITMAP
C000
6000
6000
3000
1800
1800
0C00
0600
0700
0300
0180
ENDCHAR

STARTCHAR bracketright
ENCODING 93
SWIDTH 860 0
DWIDTH 12 0
BBX 6 11 3 -1
BITMAP
FC
0C
0C
0C
0C
0C
0C
0C
0C
0C
FC
ENDCHAR

STARTCHAR asciicircum
ENCODING 94
SWIDTH 860 0
DWIDTH 12 0
BBX 10 3 1 4
BITMAP
0C00
3300
C0C0
ENDCHAR

STARTCHAR ldblank
ENCODING 95
SWIDTH 860 0
DWIDTH 12 0
BBX 1 1 0 0
BITMAP
00
ENDCHAR

STARTCHAR diamond
ENCODING 96
SWIDTH 860 0
DWIDTH 12 0
BBX 10 5 1 2
BITMAP
0C00
3F00
FFC0
3F00
0C00
ENDCHAR

STARTCHAR checkerboard
ENCODING 97
SWIDTH 860 0
DWIDTH 12 0
BBX 12 13 0 -2
BITMAP
5550
AAA0
5550
AAA0
5550
AAA0
5550
AAA0
5550
AAA0
5550
AAA0
AAA0
ENDCHAR

STARTCHAR HT
ENCODING 98
SWIDTH 860 0
DWIDTH 12 0
BBX 9 11 1 -1
BITMAP
C600
C600
FE00
C600
C600
0000
1F80
0600
0600
0600
0600
ENDCHAR

STARTCHAR FF
ENCODING 99
SWIDTH 860 0
DWIDTH 12 0
BBX 10 11 1 -1
BITMAP
FE00
C000
F800
C000
C000
0000
1FC0
1800
1F00
1800
1800
ENDCHAR

STARTCHAR CR
ENCODING 100
SWIDTH 860 0
DWIDTH 12 0
BBX 10 11 1 -1
BITMAP
7E00
C300
C000
C300
7E00
0000
3F80
30C0
3F80
3180
30C0
ENDCHAR

STARTCHAR LF
ENCODING 101
SWIDTH 860 0
DWIDTH 12 0
BBX 10 11 1 -1
BITMAP
C000
C000
C000
C000
FC00
0000
1FC0
1800
1F00
1800
1800
ENDCHAR

STARTCHAR degree
ENCODING 102
SWIDTH 860 0
DWIDTH 12 0
BBX 6 3 3 6
BITMAP
78
CC
78
ENDCHAR

STARTCHAR plusminus
ENCODING 103
SWIDTH 860 0
DWIDTH 12 0
BBX 10 7 1 0
BITMAP
0C00
0C00
FFC0
0C00
0C00
0000
FFC0
ENDCHAR

STARTCHAR NL
ENCODING 104
SWIDTH 860 0
DWIDTH 12 0
BBX 8 11 2 -1
BITMAP
C6
E6
D6
CE
C6
00
30
30
30
30
3F
ENDCHAR

STARTCHAR VT
ENCODING 105
SWIDTH 860 0
DWIDTH 12 0
BBX 9 11 1 -1
BITMAP
C300
C300
6600
6600
3C00
0000
1F80
0600
0600
0600
0600
ENDCHAR

STARTCHAR ldcornsqlr
ENCODING 106
SWIDTH 860 0
DWIDTH 12 0
BBX 7 7 0 4
BITMAP
06
06
06
06
06
06
FE
ENDCHAR

STARTCHAR ldcornsqur
ENCODING 107
SWIDTH 860 0
DWIDTH 12 0
BBX 7 7 0 -2
BITMAP
FE
06
06
06
06
06
06
ENDCHAR

STARTCHAR ldcornsqul
ENCODING 108
SWIDTH 860 0
DWIDTH 12 0
BBX 7 7 5 -2
BITMAP
FE
C0
C0
C0
C0
C0
C0
ENDCHAR

STARTCHAR ldcornsqll
ENCODING 109
SWIDTH 860 0
DWIDTH 12 0
BBX 7 7 5 4
BITMAP
C0
C0
C0
C0
C0
C0
FE
ENDCHAR

STARTCHAR ldcross
ENCODING 110
SWIDTH 860 0
DWIDTH 12 0
BBX 12 13 0 -2
BITMAP
0600
0600
0600
0600
0600
0600
FFF0
0600
0600
0600
0600
0600
0600
ENDCHAR

STARTCHAR ldscan1
ENCODING 111
SWIDTH 860 0
DWIDTH 12 0
BBX 12 1 0 10
BITMAP
FFF0
ENDCHAR

STARTCHAR ldscan3
ENCODING 112
SWIDTH 860 0
DWIDTH 12 0
BBX 12 1 0 7
BITMAP
FFF0
ENDCHAR

STARTCHAR ldhorizontal
ENCODING 113
SWIDTH 860 0
DWIDTH 12 0
BBX 12 1 0 4
BITMAP
FFF0
ENDCHAR

STARTCHAR ldscan7
ENCODING 114
SWIDTH 860 0
DWIDTH 12 0
BBX 12 1 0 1
BITMAP
FFF0
ENDCHAR

STARTCHAR ldscan9
ENCODING 115
SWIDTH 860 0
DWIDTH 12 0
BBX 12 1 0 -2
BITMAP
FFF0
ENDCHAR

STARTCHAR ldteelft
ENCODING 116
SWIDTH 860 0
DWIDTH 12 0
BBX 7 13 5 -2
BITMAP
C0
C0
C0
C0
C0
C0
FE
C0
C0
C0
C0
C0
C0
ENDCHAR

STARTCHAR ldteert
ENCODING 117
SWIDTH 860 0
DWIDTH 12 0
BBX 7 13 0 -2
BITMAP
06
06
06
06
06
06
FE
06
06
06
06
06
06
ENDCHAR

STARTCHAR ldteebt
ENCODING 118
SWIDTH 860 0
DWIDTH 12 0
BBX 12 7 0 4
BITMAP
0600
0600
0600
0600
0600
0600
FFF0
ENDCHAR

STARTCHAR ldteetp
ENCODING 119
SWIDTH 860 0
DWIDTH 12 0
BBX 12 7 0 -2
BITMAP
FFF0
0600
0600
0600
0600
0600
0600
ENDCHAR

STARTCHAR ldvertical
ENCODING 120
SWIDTH 860 0
DWIDTH 12 0
BBX 2 13 5 -2
BITMAP
C0
C0
C0
C0
C0
C0
C0
C0
C0
C0
C0
C0
C0
ENDCHAR

STARTCHAR lessequal
ENCODING 121
SWIDTH 860 0
DWIDTH 12 0
BBX 10 8 1 0
BITMAP
0780
3C00
E000
3C00
0780
0000
0000
FFC0
ENDCHAR

STARTCHAR greaterequal
ENCODING 122
SWIDTH 860 0
DWIDTH 12 0
BBX 10 8 1 0
BITMAP
7800
0F00
01C0
0F00
7800
0000
0000
FFC0
ENDCHAR

STARTCHAR pi
ENCODING 123
SWIDTH 860 0
DWIDTH 12 0
BBX 10 7 1 0
BITMAP
FFC0
3300
3300
3300
3300
3300
E300
ENDCHAR

STARTCHAR notequal
ENCODING 124
SWIDTH 860 0
DWIDTH 12 0
BBX 12 7 0 0
BITMAP
0030
00C0
7FE0
0600
7FE0
3000
C000
ENDCHAR

STARTCHAR sterling
ENCODING 125
SWIDTH 860 0
DWIDTH 12 0
BBX 10 9 1 0
BITMAP
1F00
3180
3180
3000
FC00
3000
3000
30C0
EF80
ENDCHAR

STARTCHAR periodcentered
ENCODING 126
SWIDTH 860 0
DWIDTH 12 0
BBX 2 2 5 3
BITMAP
C0
C0
ENDCHAR

STARTCHAR Error
ENCODING 159
SWIDTH 860 0
DWIDTH 12 0
BBX 10 13 1 -2
BITMAP
3F80
7FC0
E0C0
C000
E000
7800
1C00
0C00
0C00
0000
0C00
0C00
0C00
ENDCHAR

STARTCHAR ldradicalbt
ENCODING 161
SWIDTH 860 0
DWIDTH 12 0
BBX 7 11 0 0
BITMAP
06
06
06
06
06
06
06
E6
16
0E
06
ENDCHAR

STARTCHAR ldradicaltp
ENCODING 162
SWIDTH 860 0
DWIDTH 12 0
BBX 7 7 5 -2
BITMAP
FE
C0
C0
C0
C0
C0
C0
ENDCHAR

STARTCHAR ldhorizontal
ENCODING 163
SWIDTH 860 0
DWIDTH 12 0
BBX 12 1 0 4
BITMAP
FFF0
ENDCHAR

STARTCHAR ldintegraltp
ENCODING 164
SWIDTH 860 0
DWIDTH 12 0
BBX 5 12 5 -2
BITMAP
70
C8
C8
C0
C0
C0
C0
C0
C0
C0
C0
C0
ENDCHAR

STARTCHAR ldintegralbt
ENCODING 165
SWIDTH 860 0
DWIDTH 12 0
BBX 5 12 2 -1
BITMAP
18
18
18
18
18
18
18
18
18
98
98
70
ENDCHAR

STARTCHAR ldvertical
ENCODING 166
SWIDTH 860 0
DWIDTH 12 0
BBX 2 13 5 -2
BITMAP
C0
C0
C0
C0
C0
C0
C0
C0
C0
C0
C0
C0
C0
ENDCHAR

STARTCHAR ldbracketlfttp
ENCODING 167
SWIDTH 860 0
DWIDTH 12 0
BBX 5 12 5 -2
BITMAP
F8
C0
C0
C0
C0
C0
C0
C0
C0
C0
C0
C0
ENDCHAR

STARTCHAR ldbracketlftbt
ENCODING 168
SWIDTH 860 0
DWIDTH 12 0
BBX 5 12 5 -1
BITMAP
C0
C0
C0
C0
C0
C0
C0
C0
C0
C0
C0
F8
ENDCHAR

STARTCHAR ldbracketrttp
ENCODING 169
SWIDTH 860 0
DWIDTH 12 0
BBX 5 12 2 -2
BITMAP
F8
18
18
18
18
18
18
18
18
18
18
18
ENDCHAR

STARTCHAR ldbracketrtbt
ENCODING 170
SWIDTH 860 0
DWIDTH 12 0
BBX 5 12 2 -1
BITMAP
18
18
18
18
18
18
18
18
18
18
18
F8
ENDCHAR

STARTCHAR ldbracelfttp
ENCODING 171
SWIDTH 860 0
DWIDTH 12 0
BBX 4 12 5 -2
BITMAP
30
40
C0
C0
C0
C0
C0
C0
C0
C0
C0
C0
ENDCHAR

STARTCHAR ldbracelftbt
ENCODING 172
SWIDTH 860 0
DWIDTH 12 0
BBX 4 12 5 -1
BITMAP
C0
C0
C0
C0
C0
C0
C0
C0
C0
C0
40
30
ENDCHAR

STARTCHAR ldbracerttp
ENCODING 173
SWIDTH 860 0
DWIDTH 12 0
BBX 4 12 3 -2
BITMAP
C0
20
30
30
30
30
30
30
30
30
30
30
ENDCHAR

STARTCHAR ldbracertbt
ENCODING 174
SWIDTH 860 0
DWIDTH 12 0
BBX 4 12 3 -1
BITMAP
30
30
30
30
30
30
30
30
30
30
20
C0
ENDCHAR

STARTCHAR ldbracelftmid
ENCODING 175
SWIDTH 860 0
DWIDTH 12 0
BBX 5 13 2 -2
BITMAP
18
18
18
18
18
38
F0
38
18
18
18
18
18
ENDCHAR

STARTCHAR ldbracertmid
ENCODING 176
SWIDTH 860 0
DWIDTH 12 0
BBX 5 13 5 -2
BITMAP
C0
C0
C0
C0
C0
E0
78
E0
C0
C0
C0
C0
C0
ENDCHAR

STARTCHAR ldsigmalfttp
ENCODING 177
SWIDTH 860 0
DWIDTH 12 0
BBX 6 7 6 -2
BITMAP
FC
C0
60
30
18
0C
04
ENDCHAR

STARTCHAR ldsigmalftbt
ENCODING 178
SWIDTH 860 0
DWIDTH 12 0
BBX 6 7 6 4
BITMAP
04
0C
18
30
60
C0
FC
ENDCHAR

STARTCHAR ldbackslash
ENCODING 179
SWIDTH 860 0
DWIDTH 12 0
BBX 12 13 0 -2
BITMAP
8000
C000
6000
3000
1800
0C00
0600
0300
0180
00C0
0060
0030
0010
ENDCHAR

STARTCHAR ldslash
ENCODING 180
SWIDTH 860 0
DWIDTH 12 0
BBX 12 13 0 -2
BITMAP
0010
0030
0060
00C0
0180
0300
0600
0C00
1800
3000
6000
C000
8000
ENDCHAR

STARTCHAR ldsigmarttp
ENCODING 181
SWIDTH 860 0
DWIDTH 12 0
BBX 10 4 0 1
BITMAP
FFC0
0040
0040
0040
ENDCHAR

STARTCHAR ldsigmartbt
ENCODING 182
SWIDTH 860 0
DWIDTH 12 0
BBX 10 4 0 4
BITMAP
0040
0040
0040
FFC0
ENDCHAR

STARTCHAR ldsigmamid
ENCODING 183
SWIDTH 860 0
DWIDTH 12 0
BBX 6 13 0 -2
BITMAP
80
C0
60
30
18
0C
0C
0C
18
30
60
C0
80
ENDCHAR

STARTCHAR lessequal
ENCODING 188
SWIDTH 860 0
DWIDTH 12 0
BBX 10 8 1 0
BITMAP
0780
3C00
E000
3C00
0780
0000
0000
FFC0
ENDCHAR

STARTCHAR notequal
ENCODING 189
SWIDTH 860 0
DWIDTH 12 0
BBX 10 7 1 0
BITMAP
00C0
0300
FFC0
0C00
FFC0
3000
C000
ENDCHAR

STARTCHAR greaterequal
ENCODING 190
SWIDTH 860 0
DWIDTH 12 0
BBX 10 8 1 0
BITMAP
7800
0F00
01C0
0F00
7800
0000
0000
FFC0
ENDCHAR

STARTCHAR integral
ENCODING 191
SWIDTH 860 0
DWIDTH 12 0
BBX 8 11 2 -1
BITMAP
06
09
19
18
18
18
18
18
98
98
70
ENDCHAR

STARTCHAR therefore
ENCODING 192
SWIDTH 860 0
DWIDTH 12 0
BBX 10 7 1 1
BITMAP
0C00
0C00
0000
0000
0000
C0C0
C0C0
ENDCHAR

STARTCHAR proportional
ENCODING 193
SWIDTH 860 0
DWIDTH 12 0
BBX 9 6 1 1
BITMAP
7380
CF80
CC00
CC00
CF80
7380
ENDCHAR

STARTCHAR infinity
ENCODING 194
SWIDTH 860 0
DWIDTH 12 0
BBX 10 6 1 1
BITMAP
7380
EDC0
CCC0
CCC0
EDC0
7380
ENDCHAR

STARTCHAR divide
ENCODING 195
SWIDTH 860 0
DWIDTH 12 0
BBX 10 7 1 1
BITMAP
0C00
0C00
0000
FFC0
0000
0C00
0C00
ENDCHAR

STARTCHAR Delta
ENCODING 196
SWIDTH 860 0
DWIDTH 12 0
BBX 10 9 1 0
BITMAP
0C00
1E00
1600
2700
2380
4180
81C0
80C0
FFC0
ENDCHAR

STARTCHAR gradient
ENCODING 197
SWIDTH 860 0
DWIDTH 12 0
BBX 10 9 1 0
BITMAP
FFC0
80C0
81C0
4180
2380
2700
1600
1E00
0C00
ENDCHAR

STARTCHAR Phi
ENCODING 198
SWIDTH 860 0
DWIDTH 12 0
BBX 9 9 2 0
BITMAP
3E00
0800
7F00
C980
C980
C980
7F00
0800
3E00
ENDCHAR

STARTCHAR Gamma
ENCODING 199
SWIDTH 860 0
DWIDTH 12 0
BBX 9 9 2 0
BITMAP
FF80
6080
6000
6000
6000
6000
6000
6000
F000
ENDCHAR

STARTCHAR similar
ENCODING 200
SWIDTH 860 0
DWIDTH 12 0
BBX 9 3 2 3
BITMAP
3080
5900
8E00
ENDCHAR

STARTCHAR approxequal
ENCODING 201
SWIDTH 860 0
DWIDTH 12 0
BBX 9 5 2 2
BITMAP
3080
5900
8E00
0000
FF80
ENDCHAR

STARTCHAR Theta
ENCODING 202
SWIDTH 860 0
DWIDTH 12 0
BBX 9 9 2 0
BITMAP
3E00
6300
C180
D580
DD80
D580
C180
6300
3E00
ENDCHAR

STARTCHAR multiply
ENCODING 203
SWIDTH 860 0
DWIDTH 12 0
BBX 7 7 3 1
BITMAP
82
44
28
10
28
44
82
ENDCHAR

STARTCHAR Lambda
ENCODING 204
SWIDTH 860 0
DWIDTH 12 0
BBX 10 9 1 0
BITMAP
0C00
0C00
1600
1600
2300
2300
4180
4180
E3C0
ENDCHAR

STARTCHAR arrowdblboth
ENCODING 205
SWIDTH 860 0
DWIDTH 12 0
BBX 11 7 1 1
BITMAP
1100
2080
7FC0
8020
7FC0
2080
1100
ENDCHAR

STARTCHAR arrowdblright
ENCODING 206
SWIDTH 860 0
DWIDTH 12 0
BBX 9 7 2 1
BITMAP
0400
0200
FF00
0080
FF00
0200
0400
ENDCHAR

STARTCHAR equivalence
ENCODING 207
SWIDTH 860 0
DWIDTH 12 0
BBX 9 5 2 2
BITMAP
FF80
0000
FF80
0000
FF80
ENDCHAR

STARTCHAR Pi
ENCODING 208
SWIDTH 860 0
DWIDTH 12 0
BBX 9 9 2 0
BITMAP
FF80
6300
6300
6300
6300
6300
6300
6300
F780
ENDCHAR

STARTCHAR Psi
ENCODING 209
SWIDTH 860 0
DWIDTH 12 0
BBX 10 9 1 0
BITMAP
9E40
4C80
4C80
6D80
3F00
0C00
0C00
0C00
1E00
ENDCHAR

STARTCHAR Sigma
ENCODING 211
SWIDTH 860 0
DWIDTH 12 0
BBX 8 9 2 0
BITMAP
FF
61
30
18
18
30
30
61
FF
ENDCHAR

STARTCHAR radical
ENCODING 214
SWIDTH 860 0
DWIDTH 12 0
BBX 11 10 1 1
BITMAP
0020
0060
00C0
0180
0300
6200
E600
7C00
3800
3000
ENDCHAR

STARTCHAR Omega
ENCODING 215
SWIDTH 860 0
DWIDTH 12 0
BBX 8 9 2 0
BITMAP
3C
66
C3
C3
C3
C3
42
24
E7
ENDCHAR

STARTCHAR Xi
ENCODING 216
SWIDTH 860 0
DWIDTH 12 0
BBX 10 9 1 0
BITMAP
FFC0
8040
2100
3F00
3F00
2100
0000
8040
FFC0
ENDCHAR

STARTCHAR Upsilon1
ENCODING 217
SWIDTH 860 0
DWIDTH 12 0
BBX 10 9 1 0
BITMAP
C0C0
C0C0
6180
3300
1E00
0C00
0C00
0C00
0C00
ENDCHAR

STARTCHAR propersubset
ENCODING 218
SWIDTH 860 0
DWIDTH 12 0
BBX 8 8 2 1
BITMAP
7F
FF
C0
C0
C0
C0
FF
7F
ENDCHAR

STARTCHAR propersuperset
ENCODING 219
SWIDTH 860 0
DWIDTH 12 0
BBX 8 8 2 1
BITMAP
FE
FF
03
03
03
03
FF
FE
ENDCHAR

STARTCHAR intersection
ENCODING 220
SWIDTH 860 0
DWIDTH 12 0
BBX 8 8 2 1
BITMAP
7E
FF
C3
C3
C3
C3
C3
C3
ENDCHAR

STARTCHAR union
ENCODING 221
SWIDTH 860 0
DWIDTH 12 0
BBX 8 8 2 1
BITMAP
C3
C3
C3
C3
C3
C3
FF
7E
ENDCHAR

STARTCHAR logicaland
ENCODING 222
SWIDTH 860 0
DWIDTH 12 0
BBX 9 7 2 1
BITMAP
0800
1C00
3600
6300
6300
C180
C180
ENDCHAR

STARTCHAR logicalor
ENCODING 223
SWIDTH 860 0
DWIDTH 12 0
BBX 9 7 2 1
BITMAP
C180
C180
6300
6300
3600
1C00
0800
ENDCHAR

STARTCHAR logicalnot
ENCODING 224
SWIDTH 860 0
DWIDTH 12 0
BBX 9 3 2 2
BITMAP
FF80
0180
0180
ENDCHAR

STARTCHAR alpha
ENCODING 225
SWIDTH 860 0
DWIDTH 12 0
BBX 9 7 2 0
BITMAP
3900
4E00
C600
C600
C600
C600
7B80
ENDCHAR

STARTCHAR beta
ENCODING 226
SWIDTH 860 0
DWIDTH 12 0
BBX 8 11 2 -2
BITMAP
1E
23
63
EE
63
63
63
73
6E
C0
C0
ENDCHAR

STARTCHAR chi
ENCODING 227
SWIDTH 860 0
DWIDTH 12 0
BBX 9 9 2 -2
BITMAP
E300
6200
3400
1800
1C00
2600
2600
4300
C380
ENDCHAR

STARTCHAR delta
ENCODING 228
SWIDTH 860 0
DWIDTH 12 0
BBX 7 11 3 0
BITMAP
1C
32
30
18
7C
C6
C6
C6
C6
C6
7C
ENDCHAR

STARTCHAR epsilon
ENCODING 229
SWIDTH 860 0
DWIDTH 12 0
BBX 8 7 2 0
BITMAP
7E
C1
C0
78
C0
C1
7E
ENDCHAR

STARTCHAR phi
ENCODING 230
SWIDTH 860 0
DWIDTH 12 0
BBX 8 13 2 -2
BITMAP
04
04
3E
6B
CB
CB
DB
D3
D3
D6
7C
20
20
ENDCHAR

STARTCHAR gamma
ENCODING 231
SWIDTH 860 0
DWIDTH 12 0
BBX 9 10 1 -2
BITMAP
2000
7180
B100
1300
1600
1C00
0C00
1800
1800
3000
ENDCHAR

STARTCHAR eta
ENCODING 232
SWIDTH 860 0
DWIDTH 12 0
BBX 8 9 2 -2
BITMAP
EE
33
33
33
33
33
33
03
03
ENDCHAR

STARTCHAR iota
ENCODING 233
SWIDTH 860 0
DWIDTH 12 0
BBX 7 7 3 0
BITMAP
F0
30
30
30
30
32
1C
ENDCHAR

STARTCHAR theta
ENCODING 234
SWIDTH 860 0
DWIDTH 12 0
BBX 8 9 2 0
BITMAP
3C
42
C3
C3
FF
C3
C3
42
3C
ENDCHAR

STARTCHAR kappa
ENCODING 235
SWIDTH 860 0
DWIDTH 12 0
BBX 8 7 2 0
BITMAP
F3
34
38
3C
36
33
33
ENDCHAR

STARTCHAR lambda
ENCODING 236
SWIDTH 860 0
DWIDTH 12 0
BBX 8 9 2 0
BITMAP
E0
30
18
0C
1C
36
33
63
E3
ENDCHAR

STARTCHAR nu
ENCODING 238
SWIDTH 860 0
DWIDTH 12 0
BBX 8 7 1 0
BITMAP
E2
31
31
32
32
34
38
ENDCHAR

STARTCHAR partialdiff
ENCODING 239
SWIDTH 860 0
DWIDTH 12 0
BBX 7 10 3 0
BITMAP
70
1C
0C
3E
46
C6
C6
C6
E4
78
ENDCHAR

STARTCHAR pi
ENCODING 240
SWIDTH 860 0
DWIDTH 12 0
BBX 10 7 1 0
BITMAP
FFC0
3300
3300
3300
3300
3300
E300
ENDCHAR

STARTCHAR psi
ENCODING 241
SWIDTH 860 0
DWIDTH 12 0
BBX 10 11 1 -2
BITMAP
0400
0400
C4C0
6580
6580
6980
6980
3F00
0800
0800
0800
ENDCHAR

STARTCHAR rho
ENCODING 242
SWIDTH 860 0
DWIDTH 12 0
BBX 8 8 3 -1
BITMAP
3E
43
C3
C3
C3
FE
C0
C0
ENDCHAR

STARTCHAR sigma
ENCODING 243
SWIDTH 860 0
DWIDTH 12 0
BBX 8 7 3 0
BITMAP
3F
6C
C6
C6
C6
C6
7C
ENDCHAR

STARTCHAR tau
ENCODING 244
SWIDTH 860 0
DWIDTH 12 0
BBX 9 8 1 0
BITMAP
0080
7F00
9800
1800
1800
1800
1900
0E00
ENDCHAR

STARTCHAR florin
ENCODING 246
SWIDTH 860 0
DWIDTH 12 0
BBX 6 11 3 -2
BITMAP
1C
30
30
FC
30
30
30
30
30
30
E0
ENDCHAR

STARTCHAR omega
ENCODING 247
SWIDTH 860 0
DWIDTH 12 0
BBX 7 7 3 0
BITMAP
44
C6
D6
D6
D6
D6
6C
ENDCHAR

STARTCHAR xi
ENCODING 248
SWIDTH 860 0
DWIDTH 12 0
BBX 8 12 2 -2
BITMAP
20
1E
30
30
10
7C
C0
C0
E0
7F
03
06
ENDCHAR

STARTCHAR upsilon
ENCODING 249
SWIDTH 860 0
DWIDTH 12 0
BBX 10 7 1 0
BITMAP
E1C0
31C0
3180
3300
3200
3600
1C00
ENDCHAR

STARTCHAR zeta
ENCODING 250
SWIDTH 860 0
DWIDTH 12 0
BBX 8 12 2 -2
BITMAP
20
1E
30
60
40
C0
C0
C0
E0
7F
03
06
ENDCHAR

STARTCHAR arrowleft
ENCODING 251
SWIDTH 860 0
DWIDTH 12 0
BBX 10 7 2 1
BITMAP
1000
2000
4000
FFC0
4000
2000
1000
ENDCHAR

STARTCHAR arrowup
ENCODING 252
SWIDTH 860 0
DWIDTH 12 0
BBX 8 11 2 -1
BITMAP
18
3C
5A
99
18
18
18
18
18
18
18
ENDCHAR

STARTCHAR arrowright
ENCODING 253
SWIDTH 860 0
DWIDTH 12 0
BBX 10 7 0 1
BITMAP
0200
0100
0080
FFC0
0080
0100
0200
ENDCHAR

STARTCHAR arrowdown
ENCODING 254
SWIDTH 860 0
DWIDTH 12 0
BBX 8 11 2 0
BITMAP
18
18
18
18
18
18
18
99
5A
3C
18
ENDCHAR
ENDFONT
